<?xml version="1.0" encoding="UTF-8" standalone="no"?>
<!-- Created with Inkscape (http://www.inkscape.org/) -->
<svg
   xmlns:dc="http://purl.org/dc/elements/1.1/"
   xmlns:cc="http://creativecommons.org/ns#"
   xmlns:rdf="http://www.w3.org/1999/02/22-rdf-syntax-ns#"
   xmlns:svg="http://www.w3.org/2000/svg"
   xmlns="http://www.w3.org/2000/svg"
   xmlns:sodipodi="http://sodipodi.sourceforge.net/DTD/sodipodi-0.dtd"
   xmlns:inkscape="http://www.inkscape.org/namespaces/inkscape"
   id="A Japanese family coat of arms, &quot;Ageha-Cho&quot; in Japanese. This image was traced from a JPEG made by Misogi and made available in Wikimedia Commons."
   sodipodi:version="0.32"
   inkscape:version="0.46"
   width="256"
   height="242.6496"
   sodipodi:docname="Ageha-cho.svg"
   version="1.0"
   inkscape:output_extension="org.inkscape.output.svg.inkscape"
   sodipodi:modified="true">
  <metadata
     id="metadata7">
    <rdf:RDF>
      <cc:Work
         rdf:about="">
        <dc:format>image/svg+xml</dc:format>
        <dc:type
           rdf:resource="http://purl.org/dc/dcmitype/StillImage" />
      </cc:Work>
    </rdf:RDF>
  </metadata>
  <defs
     id="defs5">
    <inkscape:perspective
       sodipodi:type="inkscape:persp3d"
       inkscape:vp_x="0 : 200 : 1"
       inkscape:vp_y="0 : 1000 : 0"
       inkscape:vp_z="400 : 200 : 1"
       inkscape:persp3d-origin="200 : 133.33333 : 1"
       id="perspective9" />
  </defs>
  <sodipodi:namedview
     inkscape:window-height="667"
     inkscape:window-width="1024"
     inkscape:pageshadow="2"
     inkscape:pageopacity="0.0"
     guidetolerance="10.0"
     gridtolerance="10.0"
     objecttolerance="10.0"
     borderopacity="1.0"
     bordercolor="#666666"
     pagecolor="#ffffff"
     id="base"
     inkscape:zoom="1.9039801"
     inkscape:cx="128"
     inkscape:cy="121.3248"
     inkscape:window-x="0"
     inkscape:window-y="0"
     inkscape:current-layer="A Japanese family coat of arms, &quot;Ageha-Cho&quot; in Japanese. This image was traced from a JPEG made by Misogi and made available in Wikimedia Commons."
     showgrid="false" />
  <path
     id="path1936"
     d="M 100.14847,241.78887 C 95.729447,240.62567 95.199353,235.4752 98.776899,228.46262 C 100.60355,224.8821 102.09807,218.97023 102.09807,215.32514 C 102.09807,202.844 112.06011,191.03198 122.58651,191.03198 C 130.10032,191.03198 133.64568,193.13548 136.09393,199.04607 C 140.27359,209.13665 134.22595,221.82347 125.23623,221.82347 L 117.37228,222.03268 L 123.79832,219.40527 C 129.48789,215.44179 129.41877,207.6567 126.08302,204.32094 C 122.74726,200.98519 113.0414,201.47428 111.10328,205.97803 C 109.18707,210.43092 107.92294,213.62864 111.99802,218.54051 C 114.05892,221.02464 120.75379,221.18305 120.45605,221.2499 C 107.5058,224.15654 102.83986,229.60051 102.36601,232.94947 C 102.06772,235.05777 102.61467,237.57375 103.58145,238.54056 C 104.54826,239.50734 105.33928,240.88178 105.33928,241.59484 C 105.33928,242.95398 104.66982,242.97901 100.14847,241.78887 z M 154.80678,229.21048 C 148.58893,225.35338 142.81288,221.10572 141.9711,219.77125 C 139.30044,215.53737 144.26157,207.27741 157.10306,194.57746 C 163.84061,187.91419 167.89462,183.24184 166.11195,184.19448 C 164.32928,185.1471 159.28406,189.59495 154.90034,194.07858 C 146.58147,202.58704 144.23379,203.16774 144.23379,196.71695 C 144.23379,190.05437 165.35463,174.84265 174.62013,174.832 C 179.32487,174.82659 179.88709,175.31624 179.88709,179.4191 C 179.88709,184.59969 170.25785,199.40921 159.97711,210.04011 C 156.3318,213.80959 153.66842,217.1854 154.05849,217.54194 C 154.44857,217.89845 159.01678,220.8889 164.21006,224.18737 C 170.75517,228.34441 173.36578,230.93153 172.71823,232.61899 C 172.20445,233.95791 171.78407,235.35839 171.78407,235.73116 C 171.78407,238.0383 164.57274,235.26856 154.80678,229.21048 z M 90.057385,228.82847 C 89.467194,227.29045 90.095664,225.02831 91.504601,223.61938 C 93.744795,221.37918 93.995049,221.40809 93.995049,223.9071 C 93.995049,225.4351 94.813616,226.68528 95.814081,226.68528 C 97.070873,226.68528 97.009538,227.43666 95.615658,229.11619 C 92.993385,232.27584 91.347564,232.19064 90.057385,228.82847 z M 165.88417,223.24428 L 155.93277,216.8331 L 171.14783,201.09649 C 179.51612,192.44135 186.36439,185.16074 186.3662,184.91737 C 186.36802,184.67399 184.45239,185.73099 182.10928,187.26627 L 177.84904,190.05768 L 180.50544,184.92075 C 183.38933,179.34393 187.54153,176.44655 192.64974,176.44655 C 200.5535,176.44655 198.34408,181.09325 180.37878,202.25396 C 174.76035,208.87171 170.16346,214.83139 170.16346,215.49767 C 170.16346,216.16395 173.07561,219.20177 176.63488,222.24839 C 180.19416,225.295 182.62507,228.26891 182.0369,228.85709 C 179.89121,231.00279 175.6269,229.52102 165.88417,223.24428 z M 59.96236,225.10203 C 59.96236,224.23125 61.744927,222.35081 63.923636,220.92328 C 66.629802,219.15012 68.041867,216.53594 68.380298,212.67256 L 68.875684,207.01739 L 72.522044,210.43205 C 77.183875,214.79766 77.203728,220.91451 72.566594,224.16249 C 68.586212,226.95046 59.96236,227.59331 59.96236,225.10203 z M 176.56898,220.13104 L 171.2875,215.19739 L 176.80274,209.49866 C 179.83614,206.36437 187.23632,200.43669 193.2476,196.32609 C 199.25887,192.21547 203.84775,188.52278 203.44509,188.12012 C 203.04243,187.71745 198.94389,190.09583 194.33721,193.4054 L 185.96146,199.42278 L 191.40701,191.83997 C 194.40206,187.66943 198.0923,183.59369 199.60751,182.78277 C 203.59744,180.64743 215.14168,180.97276 216.55551,183.2604 C 217.32519,184.50575 211.95866,190.65951 201.73156,200.25889 C 186.82333,214.25207 185.91317,215.46034 188.72956,217.51975 C 192.7163,220.43493 190.90726,225.06468 185.78145,225.06468 C 183.61941,225.06468 179.4738,222.84453 176.56898,220.13104 z M 52.603001,218.47444 C 52.015483,217.52381 51.790122,216.57382 52.102202,216.36335 C 52.414298,216.15288 54.675138,214.72603 57.126302,213.1926 C 60.13006,211.31346 61.582965,209.03118 61.582965,206.19193 C 61.582965,202.63116 61.959107,202.29151 64.013871,203.99683 C 66.922921,206.41111 67.233607,215.52459 64.500053,218.25814 C 62.090084,220.66812 54.049114,220.8143 52.603001,218.47444 z M 96.702918,212.23489 C 97.951208,202.48735 101.96562,196.0816 110.80355,189.73468 C 118.38594,184.28941 124.11244,183.35329 132.32564,186.21643 C 141.34101,189.3592 146.05209,203.53616 140.57168,211.03107 C 138.83832,213.40158 138.61603,212.74332 139.09905,206.67019 C 139.57966,200.62736 138.93967,198.70229 134.97489,194.26495 C 131.22958,190.07324 128.95621,188.97776 123.71763,188.84039 C 111.8269,188.52861 100.36629,200.57289 100.18692,213.56948 C 100.13205,217.54564 99.346945,219.66267 97.927265,219.66267 C 96.285011,219.66267 95.984874,217.84187 96.702918,212.23489 z M 115.46805,218.48033 C 111.39323,216.89991 110.36735,209.34062 113.76642,205.94155 C 116.42776,203.28021 122.35266,203.4951 124.7125,206.33853 C 129.5389,212.15399 122.61249,221.25125 115.46805,218.48033 z M 121.54533,211.28955 C 121.54533,209.95255 120.49445,208.85863 119.21006,208.85863 C 116.5026,208.85863 114.67495,211.17169 116.18736,212.68411 C 118.12424,214.62098 121.54533,213.73055 121.54533,211.28955 z M 78.953996,211.97096 C 65.671992,204.00193 53.196937,192.06159 44.096532,178.60756 C 33.429649,162.83768 17.458123,143.63772 16.379011,145.28733 C 15.838215,146.11405 13.805524,147.62745 11.861933,148.65044 C 9.0316611,150.14013 7.8217338,150.00407 5.7846664,147.96701 C 2.1181948,144.30053 2.6419741,141.2606 7.4871762,138.0859 C 15.194269,133.03602 20.926832,138.00442 42.946017,168.81792 C 62.877082,196.70934 69.363178,203.28465 85.009915,211.46043 C 93.661447,215.98106 96.215988,218.59197 91.969293,218.5734 C 90.855128,218.56853 84.998247,215.59743 78.953996,211.97096 z M 46.329758,213.95106 C 45.240695,212.18894 47.301651,209.61061 51.616977,207.3365 C 54.603751,205.76252 55.276626,204.31065 54.733707,200.61148 C 54.35288,198.01676 54.554971,195.8938 55.182792,195.8938 C 57.858832,195.8938 60.145699,200.92661 59.667782,205.76412 C 59.233607,210.15883 58.196614,211.3135 53.11038,213.06554 C 49.787463,214.21021 46.736189,214.60869 46.329758,213.95106 z M 83.46112,208.42164 C 71.588009,202.05695 60.292591,190.93402 49.026849,174.51326 L 40.522257,162.11707 L 45.304385,161.06674 C 47.934562,160.48905 51.862207,158.61966 54.032471,156.91253 L 57.978416,153.80865 L 65.857957,167.96366 C 70.899171,177.01982 77.710555,186.11185 84.767181,193.20425 C 90.833525,199.30132 95.573791,205.40307 95.301114,206.7637 C 94.256793,211.97486 68.366992,188.95998 59.8296,175.2311 C 57.112884,170.86237 54.299125,170.30036 56.591876,174.58441 C 59.8859,180.73934 81.70868,202.6372 88.535621,206.63805 C 92.429642,208.9201 95.615658,211.44719 95.615658,212.25383 C 95.615658,214.5518 93.870036,214.00143 83.46112,208.42164 z M 202.57555,204.32572 C 202.57555,201.48025 215.24687,190.8915 218.91416,190.67239 C 228.18344,190.11858 231.53925,191.06739 232.64612,194.55486 C 234.04035,198.94765 229.87115,202.37622 223.13523,202.37622 C 219.06283,202.37622 218.67734,202.02362 220.43471,199.90614 C 224.07958,195.51436 221.24762,195.90414 213.8487,200.81264 C 206.71234,205.54698 202.57555,206.83614 202.57555,204.32572 z M 88.245014,194.02836 C 79.881403,186.31905 72.548882,176.54976 64.819263,162.81772 C 59.740646,153.79531 59.633831,153.29416 62.975761,154.16809 C 68.011464,155.48495 76.885392,152.68857 82.402428,148.04628 L 87.116523,144.07965 L 88.097945,148.9868 C 89.759988,157.29697 98.853494,178.56709 103.15574,184.20764 C 106.43894,188.51212 106.85363,190.0176 105.27885,191.9151 C 104.20248,193.21206 102.74394,194.27319 102.03765,194.27319 C 100.02739,194.27319 89.499055,179.24384 84.226888,168.84809 C 81.59997,163.66825 79.441425,160.36603 79.430146,161.50983 C 79.396486,164.91997 86.718325,178.30517 93.700131,187.5971 C 99.613234,195.46667 100.95029,200.75562 97.026665,200.75562 C 96.210775,200.75562 92.259041,197.72834 88.245014,194.02836 z M 140.6595,189.81081 C 137.14196,185.74 140.70242,166.76644 147.65189,152.54856 C 154.39167,138.75967 154.78981,137.61145 151.44692,141.60355 C 145.67626,148.49493 141.30585,160.72528 136.80072,182.5901 C 135.46292,189.08285 132.88849,184.67768 132.9177,175.94575 C 132.95866,163.69839 136.97021,146.67011 142.69266,134.45273 C 147.14411,124.94896 147.88116,124.13274 149.40613,127.01811 C 152.01867,131.96125 155.71684,134.31083 160.88463,134.31083 C 163.46256,134.31083 165.32342,134.85779 165.01991,135.52629 C 164.7164,136.19479 162.14753,141.19103 159.31131,146.62903 C 152.42832,159.82616 147.475,174.91267 147.475,182.67941 C 147.475,190.50541 144.21091,193.92079 140.6595,189.81081 z M 222.83311,187.9826 C 219.43081,187.28131 217.97129,186.02939 217.97129,183.81232 C 217.97129,181.82645 216.55654,180.31022 214.18015,179.74922 C 210.43879,178.866 210.47451,178.74797 216.89956,170.76283 C 220.48036,166.31255 226.7283,160.48359 230.78385,157.80959 C 234.83942,155.1356 238.17362,152.37517 238.19322,151.67532 C 238.27519,148.74765 230.15612,154.99879 218.72385,166.6654 C 206.85811,178.7744 199.33434,183.48547 199.33434,178.80626 C 199.33434,177.597 198.25708,176.00474 196.94042,175.2679 C 191.8827,172.43746 215.95318,147.68455 234.98764,136.14193 C 238.1073,134.25016 239.65847,132.69961 238.43465,132.69629 C 232.59842,132.68039 203.10731,158.38584 194.44308,171.04081 C 193.12227,172.96998 189.66714,175.03437 186.765,175.62835 C 181.61247,176.68293 181.52638,176.60838 183.10433,172.45809 C 187.77916,160.16236 211.71374,132.34914 222.35571,126.84596 C 225.01227,125.4722 226.76662,123.92902 226.25427,123.41666 C 222.86565,120.02804 195.53132,147.23882 186.36951,163.12116 C 181.46444,171.62426 180.09515,172.91617 176.24396,172.6745 C 173.79456,172.5208 171.78906,172.17182 171.78729,171.89899 C 171.78551,171.62616 173.92933,167.07915 176.55132,161.7945 C 182.72335,149.35471 189.20046,140.0233 200.38671,127.45549 C 206.63754,120.43266 205.43791,121.3809 196.5024,130.52582 C 186.33847,140.92794 182.05366,146.87608 176.46361,158.3434 C 169.95562,171.69379 168.10729,173.86985 159.964,177.7686 C 157.53641,178.93087 160.85793,169.14112 167.53335,155.45891 C 172.59582,145.08268 177.5086,138.29877 187.80649,127.46426 C 195.28181,119.59941 203.48612,111.93102 206.03829,110.42342 C 208.59044,108.91583 210.67857,107.06499 210.67857,106.31045 C 210.67857,103.54692 195.38277,115.99719 184.56439,127.56655 C 172.80784,140.13921 159.68629,163.23801 157.84274,174.60662 C 157.24608,178.286 155.32798,181.66418 152.73423,183.60382 L 148.58112,186.70958 L 149.61775,179.14649 C 151.08771,168.42203 158.75376,149.55755 166.22148,138.2884 C 174.78854,125.36028 191.41119,107.95617 203.34497,99.419679 C 217.57349,89.241709 221.90189,84.023009 226.1148,71.966409 C 231.11775,57.648849 234.14063,53.280609 239.04563,53.280609 C 244.92393,53.280609 246.07617,59.903639 241.74783,68.812649 C 237.48128,77.594489 239.67534,79.438319 245.42374,71.901779 C 250.58287,65.137799 253.98218,64.687719 255.4593,70.573019 C 256.35121,74.126679 255.64923,75.648209 251.53401,79.081179 C 229.00892,97.871979 225.71742,102.25905 230.1433,107.59191 C 232.88426,110.89456 237.96557,110.61284 245.56845,106.73665 C 249.09084,104.94084 252.8914,103.82404 254.01414,104.25489 C 256.53369,105.22173 256.68661,116.57703 254.29604,125.18665 C 253.05144,129.66907 253.054,131.95758 254.30506,133.20864 C 256.76557,135.66915 256.48133,142.42 253.56982,150.67213 C 250.80649,158.50421 246.05828,164.28762 239.65605,167.61933 C 236.24372,169.39509 235.57484,170.68458 236.24569,174.19389 C 237.16088,178.98148 232.38516,189.54985 229.46548,189.19805 C 228.49168,189.08071 225.5071,188.53376 222.83311,187.9826 z M 105.81135,184.14442 C 101.43352,179.35663 97.733998,171.89885 92.794651,157.90442 C 89.449577,148.42698 88.61367,142.44405 87.920084,123.01523 L 87.082944,99.565099 L 93.0263,104.78344 C 98.052542,109.19654 100.24045,110.00177 107.20519,110.00177 C 115.35101,110.00177 115.42987,110.05033 114.4426,114.45843 C 110.05409,134.05264 110.31157,161.51226 115.03827,177.98429 C 116.22681,182.12625 116.12292,183.90192 114.63706,184.84163 C 109.71839,187.95237 104.5282,172.46534 102.12058,147.49366 C 101.20669,138.01477 100.2152,127.70687 99.917276,124.58721 C 99.619338,121.46755 99.264027,124.01999 99.127679,130.25932 C 98.810159,144.78964 102.41029,168.36539 106.61377,179.28261 C 108.41553,183.9621 109.72225,187.79078 109.51758,187.79078 C 109.31292,187.79078 107.64511,186.14992 105.81135,184.14442 z M 116.58998,176.8517 C 112.50815,163.56128 113.18678,116.19949 117.52115,111.86513 C 117.98875,111.39754 120.4043,113.45021 122.88909,116.42657 C 126.82767,121.14435 128.59794,121.93692 136.69696,122.60856 C 141.80652,123.03229 145.73807,123.83314 145.43375,124.38823 C 136.79654,140.14382 131.34623,159.47949 131.29709,174.53961 C 131.27317,181.87359 130.84389,183.08546 128.43289,182.62507 C 124.14184,181.80568 123.7537,160.87189 127.71913,144.12844 C 129.40626,137.00485 130.22249,131.52508 129.53301,131.9512 C 126.96354,133.53923 123.16593,155.67771 123.16593,169.0686 C 123.16593,180.10924 122.6869,182.92897 120.81119,182.92897 C 119.50239,182.92897 117.6274,180.22955 116.58998,176.8517 z M 38.338638,157.28046 C 35.799783,154.47504 35.893633,154.35471 40.1349,154.9772 C 43.338981,155.44746 46.379867,154.22746 50.841599,150.68172 C 56.009009,146.57517 57.634638,146.02991 60.360672,147.48884 C 65.59866,150.29213 74.535354,147.92356 80.487607,142.15439 C 85.48002,137.31555 85.892027,137.18235 85.892027,140.40703 C 85.892027,146.08961 72.995617,152.74939 63.963001,151.73128 C 58.734704,151.14198 56.222767,151.59612 54.725782,153.40132 C 53.029609,155.44669 43.849391,160.24051 41.628644,160.24051 C 41.292482,160.24051 39.811995,158.90848 38.338638,157.28046 z M 36.4636,151.87561 C 34.680934,150.9609 30.439099,145.91452 27.037321,140.66144 C 23.635527,135.40839 16.160489,124.74426 10.426126,116.96338 C 4.691747,109.18252 -2.1533979e-15,102.36232 -2.1533979e-15,101.80738 C -2.1533979e-15,99.932729 8.2201434,97.036929 13.541641,97.036929 C 16.449005,97.036929 20.243374,98.107649 21.973565,99.416299 C 25.971709,102.44033 27.550275,102.49571 27.550275,99.611889 C 27.550275,98.354129 29.79405,95.437059 32.536437,93.129479 C 37.923651,88.596429 45.17511,87.705099 52.868877,90.630259 C 56.855207,92.145859 57.732036,91.813739 61.097561,87.513399 C 65.622143,81.732049 72.510927,79.907309 80.214308,82.449639 L 85.892027,84.323449 L 85.892027,109.19281 C 85.892027,133.30157 85.76912,134.20822 81.873332,138.8381 C 76.090389,145.71074 69.263058,148.18707 62.131912,145.99845 C 56.938344,144.40449 55.797909,144.68292 49.838642,148.99979 C 42.754624,154.13142 41.419424,154.41852 36.4636,151.87561 z M 48.108533,140.51076 C 50.171482,138.57271 51.813118,135.47331 51.756608,133.62319 C 51.662937,130.55542 51.516467,130.603 50.092753,134.16381 C 47.089222,141.67577 37.599141,145.01611 32.40922,140.3881 C 30.476601,138.66473 30.457833,138.7857 32.283526,141.1984 C 35.280233,145.15864 43.543274,144.7996 48.108533,140.51076 z M 44.16147,129.81646 C 45.721302,128.44674 46.975358,126.16287 46.948245,124.74118 C 46.910112,122.74121 46.483067,122.88972 45.061003,125.39751 C 44.050103,127.18017 42.431426,129.17451 41.463909,129.82936 C 38.714846,131.69004 31.64397,131.27387 29.495001,129.1249 C 27.982442,127.61235 27.550275,127.62395 27.550275,129.17711 C 27.550275,131.83305 34.022093,134.2991 38.084204,133.19101 C 39.866868,132.70474 42.601638,131.18618 44.16147,129.81646 z M 77.671385,128.42016 C 79.518744,126.07163 81.001014,123.33686 80.965328,122.3429 C 80.929643,121.34893 79.817308,122.53193 78.493453,124.97176 C 75.61432,130.27801 69.399253,132.19763 63.621636,129.56518 C 59.888606,127.86429 59.651561,127.93212 61.508676,130.1698 C 64.946918,134.31263 73.789292,133.35543 77.671385,128.42016 z M 40.190989,121.02188 C 41.260589,119.95228 42.135715,117.54569 42.135715,115.67388 C 42.135715,110.88469 39.075851,108.38116 33.22239,108.38116 C 30.45926,108.38116 27.32339,109.25629 26.253792,110.32588 C 23.754009,112.82567 23.754009,118.52209 26.253792,121.02188 C 28.765874,123.53396 37.678923,123.53396 40.190989,121.02188 z M 72.927195,119.72539 C 74.70986,117.94273 76.165681,115.20796 76.162343,113.64813 C 76.158308,111.76037 75.082518,112.5732 72.944957,116.07903 C 69.80147,121.23471 64.46568,123.07862 62.393266,119.72539 C 61.842391,118.83406 60.616144,118.10479 59.668285,118.10479 C 58.581524,118.10479 58.690169,119.00279 59.96236,120.5357 C 62.797364,123.95167 69.094499,123.55809 72.927195,119.72539 z M 73.152816,110.1033 C 76.263858,107.55025 76.644538,106.41475 75.190223,104.02603 C 72.722092,99.972069 65.364904,97.522719 62.010901,99.638369 C 56.424856,103.16196 55.645961,106.74623 59.73674,110.1033 C 61.840997,111.83012 64.8596,113.24298 66.444778,113.24298 C 68.029956,113.24298 71.048559,111.83012 73.152816,110.1033 z M 152.45444,128.42016 C 150.60708,126.07163 149.09561,123.60683 149.09561,122.94283 C 149.09561,122.27883 144.58811,121.40953 139.07894,121.01102 C 129.84925,120.34341 128.63703,119.79457 123.6502,114.02565 C 118.63336,108.22202 117.67582,107.79467 110.53798,108.1735 C 106.3029,108.39829 100.94054,107.86085 98.621612,106.9792 C 92.635281,104.7032 86.889055,94.880229 88.286631,89.311899 C 89.325471,85.172809 89.482314,85.107779 91.09757,88.146509 C 96.871426,99.008729 106.35601,103.56023 117.05895,100.60502 C 122.50391,99.101599 122.85506,99.264519 125.32259,104.439 C 129.30265,112.78525 134.62011,115.47295 145.02753,114.3988 C 152.7255,113.60431 153.9409,113.87913 154.80771,116.6102 C 155.99305,120.34482 160.9226,123.23439 168.23703,124.48211 L 173.60334,125.39751 L 170.19967,129.04387 C 165.30735,134.28502 156.83344,133.98717 152.45444,128.42016 z M 162.39895,121.27085 C 160.3568,120.45118 157.80434,117.68837 156.72683,115.13127 C 155.14981,111.38876 154.13559,110.72903 151.52651,111.74859 C 140.48582,116.063 129.59341,111.73551 126.07267,101.6359 C 124.9522,98.421739 123.58994,97.166109 121.77345,97.673209 C 107.35919,101.69734 99.604305,99.235169 93.43594,88.676069 C 89.56793,82.054729 89.260324,79.831139 88.203349,50.849709 C 87.401441,28.861865 86.271653,17.418437 84.251862,10.825332 L 81.423372,1.5924567 L 86.238075,0.53496273 C 99.004146,-2.2689413 119.75378,6.2386487 131.94995,19.277335 C 136.73199,24.389726 140.85616,27.350943 143.19429,27.350943 C 149.98564,27.350943 163.08055,32.13004 169.9762,37.12523 C 177.94574,42.898324 185.09302,53.467159 187.96534,63.726109 C 189.6834,69.862389 190.87018,71.271559 195.64793,72.848359 C 200.02843,74.294049 202.00989,76.321349 204.46323,81.867489 C 208.32009,90.586599 207.46119,93.784479 199.67595,99.691299 C 196.36841,102.20083 189.12267,108.46438 183.57433,113.61034 C 173.3526,123.09071 169.97622,124.31218 162.39895,121.27085 z M 175.83558,111.62237 C 178.39388,110.52304 177.71097,110.20034 172.59437,110.09085 C 164.83422,109.92479 162.73466,108.76421 160.62328,103.4736 C 159.17565,99.846129 159.01498,99.788469 158.92196,102.86302 C 158.81852,106.28195 162.42088,110.43813 166.92225,112.09327 C 170.2883,113.33093 172.0798,113.23629 175.83558,111.62237 z M 180.56484,102.53566 C 181.97475,101.99463 183.1283,100.96407 183.1283,100.24554 C 183.1283,99.526969 180.92193,99.771899 178.22526,100.78976 C 172.07055,103.11292 167.94066,100.88311 167.21976,94.847719 C 166.65014,90.078799 163.68105,88.893599 163.68105,93.435119 C 163.68105,101.14885 172.20533,105.74351 180.56484,102.53566 z M 182.07382,90.647339 C 187.47512,88.593779 189.08173,83.102639 185.45411,79.094149 C 179.54385,72.563379 166.83587,77.761439 169.34961,85.681499 C 170.23861,88.482489 172.66505,90.327209 177.75583,92.072389 C 177.92065,92.128899 179.86374,91.487629 182.07382,90.647339 z M 147.58154,88.876899 C 149.30561,87.954209 150.71621,86.454299 150.71621,85.543789 C 150.71621,84.633279 149.09539,85.023569 147.1144,86.411119 C 143.32445,89.065689 136.5543,89.704899 133.53028,87.693639 C 132.54568,87.038789 130.56937,84.315179 129.1385,81.641189 C 127.60695,78.779059 126.51022,77.855959 126.47202,79.396879 C 126.43634,80.836519 127.91861,83.935919 129.76597,86.284449 C 133.39733,90.900969 141.57582,92.091059 147.58154,88.876899 z M 150.99375,78.148799 C 152.62377,76.673659 153.95742,74.850479 153.95742,74.097289 C 153.95742,73.344119 152.49887,74.186409 150.71621,75.969079 C 144.79415,81.891129 138.18574,79.599029 136.13482,70.911609 C 134.84835,65.462339 134.84111,65.458649 134.67605,70.169359 C 134.354,79.360149 144.28765,84.217749 150.99375,78.148799 z M 117.8086,65.372429 L 122.35562,61.258199 L 116.68351,64.556069 C 109.17191,68.923449 106.24938,68.723989 102.19301,63.567139 C 100.33315,61.202719 98.379712,59.699989 97.851977,60.227709 C 96.041271,62.038419 105.19155,69.486659 109.22675,69.486659 C 111.4459,69.486659 115.30773,67.635249 117.8086,65.372429 z M 157.18116,65.456199 C 160.16127,61.865379 157.85527,55.127779 153.25062,53.972079 C 147.65968,52.568849 144.12876,53.611089 141.61281,57.407289 C 139.73988,60.233219 139.78476,61.251779 141.91621,64.294859 C 144.87204,68.514869 154.06242,69.214059 157.18116,65.456199 z M 118.52973,53.104449 L 122.35562,49.687069 L 117.95598,52.294149 C 111.68553,56.009789 107.39004,55.532359 102.83098,50.613069 C 100.64521,48.254589 98.856859,47.107729 98.856859,48.064539 C 98.856859,50.839159 107.05002,56.521819 111.0504,56.521819 C 113.05979,56.521819 116.42548,54.983999 118.52973,53.104449 z M 118.41065,43.499969 C 122.86801,41.11446 122.4159,34.478506 117.58016,31.309998 C 109.60153,26.082204 99.585983,35.951588 106.17909,42.544677 C 109.19711,45.562699 113.87392,45.927959 118.41065,43.499969 z M 208.3568,86.514799 C 207.08223,79.720759 200.72908,71.808689 195.49298,70.494519 C 191.83304,69.575919 191.71598,69.145209 193.13258,61.809449 C 194.66587,53.869509 194.05916,45.307139 191.00122,31.729411 C 189.48635,25.003173 189.63637,23.526284 192.1124,20.790331 C 195.8514,16.658762 203.5552,16.642767 205.75975,20.761986 C 206.68243,22.486051 207.43737,26.861682 207.43737,30.485613 C 207.43737,39.022552 209.81464,38.949447 211.66377,30.355624 C 213.36478,22.450235 217.22389,19.178882 221.07666,22.376384 C 224.63311,25.327991 224.28587,29.806434 219.62285,41.12608 C 214.69401,53.091089 214.38908,63.664479 218.7816,70.296969 C 220.55251,72.970949 222.00626,76.336649 222.01213,77.776279 C 222.02505,80.942999 216.40662,88.356279 212.34712,90.528859 C 209.83083,91.875539 209.25352,91.294789 208.3568,86.514799 z M 81.644244,80.857659 C 78.485334,79.581769 78.149139,77.963559 77.49555,60.888379 C 76.684745,39.705847 74.785364,35.121498 65.152152,31.096484 C 57.791593,28.021046 46.5681,29.079431 40.735123,33.399022 C 29.63212,41.621321 25.938033,55.216019 32.529712,63.595989 C 35.398603,67.243209 37.112441,67.858539 44.279094,67.814519 C 51.800412,67.768319 52.361093,67.529169 49.691184,65.505969 C 45.216629,62.115259 46.869176,57.332119 52.515213,57.332119 C 58.797469,57.332119 61.095648,61.217559 58.508207,67.464209 C 51.540127,84.286609 21.92331,74.208369 21.964181,55.028709 C 21.98217,46.593299 28.565697,34.292089 35.909369,28.972358 C 51.255533,17.855643 75.37191,22.530001 81.891694,37.884872 C 83.742246,42.243163 87.194344,82.599839 85.695107,82.348759 C 85.357746,82.292269 83.534858,81.621269 81.644244,80.857659 z"
     style="fill:#ca3800;fill-opacity:1" />
</svg>
