<?xml version="1.0" encoding="utf-8"?>
<!-- Svg Vector Icons : http://www.onlinewebfonts.com/icon -->
<!DOCTYPE svg PUBLIC "-//W3C//DTD SVG 1.1//EN" "http://www.w3.org/Graphics/SVG/1.1/DTD/svg11.dtd">
<svg version="1.1" xmlns="http://www.w3.org/2000/svg" xmlns:xlink="http://www.w3.org/1999/xlink" x="0px" y="0px" viewBox="0 0 1000 1000" enable-background="new 0 0 1000 1000" xml:space="preserve">
<metadata> Svg Vector Icons : http://www.onlinewebfonts.com/icon </metadata>
<g><g><g id="_x33_1_44_"><g style="fill:#1a76da;stroke:#1a76da"><path d="M930.5,671.3c-32.8,0-59.5,26.6-59.5,59.5c0,3.8,0.4,7.5,1,11.1c-25.6,1.8-58.6-6-73.2-14.3c-31.8-18.1-44.3-62.4-55.4-101.4l-1.7-5.8c-6.7-23.6-13.7-47.8-20.5-71.2c-7.6-26-15.4-52.8-22.7-78.9c-8.6-30.3-13.3-62.7-17.9-94c-3.3-22.8-6.8-46.4-11.7-69.5c-3.6-16.7-8.5-33.5-14.5-50.2c-3.4-25.3-9.7-50.3-21.1-74.9C611.7,135,573.2,89.2,518.9,45.6c-51.4-41.3-137.4-36.4-197-7.9c-41.7,16.8-74.5,57.8-95.8,87.5c-0.6,0.9-1.2,1.7-1.9,2.5H80.4c-38.9,0-70.4,31.5-70.4,70.4v612.1c0,38.9,31.5,70.4,70.4,70.4h343.4c38.9,0,70.4-31.5,70.4-70.4V198.1c0-38.9-31.5-70.4-70.4-70.4h-144c14.6-18.6,32.3-38.4,50.4-48.6c2.6-1.5,5.3-2.9,8-4.2c0.4-0.1,0.7-0.3,1.1-0.4c31-11.3,75.1-18,103.9-7.6c56.9,20.6,107.4,86.7,126.5,114.2c18.9,27.2,34.2,56.1,45.3,85.5c3.2,27.4,2.6,56,1.4,86.3c-2.1,53.5-17.6,105.1-34.1,159.7C564.7,570.6,546.6,630.8,546,694c-0.5,55.5-1.8,185.5,57.4,239.4c17.8,16.2,39.2,24.4,63.8,24.4c2.2,0,4.4-0.1,6.7-0.2c10.6,16.2,28.9,27,49.8,27c32.8,0,59.5-26.6,59.5-59.5c0-32.8-26.6-59.5-59.5-59.5c-30.1,0-55,22.4-58.9,51.5c-13.3-0.5-24.5-5-34-13.7c-45.8-41.7-44.6-163.3-44.2-209.1c0.6-57.4,17.1-112.2,34.5-170.2c9.6-31.9,19.4-64.5,26.4-97.7c3.2,18.3,7,36.7,12.1,54.9c7.4,26.2,15.2,53.1,22.8,79.2c6.8,23.3,13.8,47.4,20.5,70.9l1.6,5.8c12.5,44.2,28.1,99.3,74.3,125.6c23.6,13.4,77.8,26.4,116.9,16.2c9.8,7.1,21.8,11.2,34.8,11.2c32.8,0,59.5-26.6,59.5-59.5C990,697.9,963.4,671.3,930.5,671.3z M255.8,819.7c-57.3,0-104-46.6-104-104c0-57.3,46.6-104,104-104c57.3,0,104,46.6,104,104S313.1,819.7,255.8,819.7z M418.2,210.2c4.6,0,8.4,3.8,8.4,8.4v319.2c0,4.6-3.8,8.4-8.4,8.4H85.9c-4.6,0-8.4-3.7-8.4-8.4V218.6c0-4.6,3.8-8.4,8.4-8.4H418.2z"/><path d="M255.8,629.2c-47.7,0-86.5,38.8-86.5,86.5c0,47.7,38.8,86.5,86.5,86.5c47.7,0,86.5-38.8,86.5-86.5C342.3,668,303.5,629.2,255.8,629.2z M295.3,719.1l-51.4,37.3c-1.3,0.8-3,0.8-4.3,0c-1.3-0.8-2.2-2.2-2.2-3.7V678c0-1.5,0.8-3,2.2-3.7c0.7-0.4,1.4-0.6,2.2-0.6c0.7,0,1.5,0.2,2.2,0.6l51.4,37.3c1.3,0.8,2.2,2.2,2.2,3.7C297.4,716.9,296.6,718.3,295.3,719.1z"/></g></g></g><g></g><g></g><g></g><g></g><g></g><g></g><g></g><g></g><g></g><g></g><g></g><g></g><g></g><g></g><g></g></g>
</svg>