<?xml version="1.0" encoding="utf-8"?>
<!-- Svg Vector Icons : http://www.onlinewebfonts.com/icon -->
<!DOCTYPE svg PUBLIC "-//W3C//DTD SVG 1.1//EN" "http://www.w3.org/Graphics/SVG/1.1/DTD/svg11.dtd">
<svg version="1.1" xmlns="http://www.w3.org/2000/svg" xmlns:xlink="http://www.w3.org/1999/xlink" x="0px" y="0px" viewBox="0 0 1000 1000" enable-background="new 0 0 1000 1000" xml:space="preserve">
<metadata> Svg Vector Icons : http://www.onlinewebfonts.com/icon </metadata>
<g><g><g style="fill:#8808bf;stroke:#8808bf"><path d="M322.9,463c-22.6-16.6-45.9-23.9-68.2-24c-0.5-36.3-1.3-72.7-1.9-109.1c12-8.9,23.7-18,34.5-27.5c58.9-51.5,97.6-126.6,91.7-206C374.8,38.8,306.6-20.8,254.9,28c-21.7,20.5-25,57.9-28.3,85.5c-7.6,63.8-5.8,129.2-5.5,193.4c0,2.6,0,5.2,0,7.8c-37.8,28.6-77.9,54.9-112.3,87.4c-58.6,55.4-94.6,140.8-65.1,219.6c25.3,67.5,97,102.4,165.6,103.3c0.2,0,0.4,0,0.7,0c-0.1,1.5-0.2,3-0.3,4.5c-3.2,45.2-4.5,91.1,0.9,136.1c-18.4-33.5-52.9-59.3-89.7-63.4c-58.2-6.4-88.9,67.4-79,114.9c5.9,28.2,27.6,47.8,53.3,58.5c64.6,35.6,177.9,3.8,150.2-76c-0.3-0.9-0.8-1.5-1.2-2.2c-6.4-58.5-5-116.9-1.4-175.4c60.5-11.2,117.9-53.3,138.9-110.6C402.4,554.8,367.4,495.7,322.9,463z M220.7,444.6c-38.6,12.8-71.2,46.9-87.6,90.1c-6.1,16.2,20.8,27.5,27.9,11.8c13.3-29.3,30.9-57.1,59.2-69.3c-1.2,71.9-3.7,143.7-8.2,215.9c-0.9,0.1-1.8,0.2-2.7,0.2C96.2,698.3,38.7,588,82.3,491.5c27.4-60.6,84-100,138.9-138.8C221.2,383.4,221,414,220.7,444.6z M258.9,113.5c2-20.8,6.1-41.8,16.7-60c19.7-33.8,61.1,7.7,68.2,28.7c14.1,41.7-3.6,98.1-25.8,133.9c-17.8,28.7-40.6,52.2-65.7,73.5C252,230.8,253.2,172,258.9,113.5z M245,687.4c4-56,9-112,9.8-168.1c0.2-16.1,0.3-32.2,0.2-48.3c33.4,1.6,64.2,24.8,82.7,51.1C390.6,597.4,318,666.9,245,687.4z"/><path d="M957.8,389.7c0.4-29.6,16.7-111.8-10.4-137.8c0.4-4-4.4-8.3-8.6-5.7c-0.1,0-0.1,0.1-0.2,0.2c-0.3-0.1-0.5-0.2-0.8-0.3c-0.3-7.4-5.3-14.5-15.3-14.8c-58.3-1.6-123.6,22.6-178.9,38.3c-34,9.6-68,20-100.8,33.1c-12.5,5-36,12.1-44.1,25.7c-2.1,1-3.9,2.5-5,4.7c-11.5,22.7-5.8,53.5-5.8,78.4c0,38.3,0.7,76.5,2.1,114.7c1.4,36.2,4,72.5,8.9,108.4c0.6,4.6,1.2,9.7,1.8,15c-29.3-18.6-76-14.5-112.3,6.9c-30,17.6-53.3,48.3-52.5,84.1c1,43.5,40.6,80.8,83,83.7c48,3.3,96.5-23.5,110.2-71.3c2.6-9,3.5-18.3,2.9-27.4c2.6-0.3,5-1.8,5.9-4.9c7.5-23.7-4-54-6.9-78c-4.6-38.7-7-77.6-8.7-116.5c-1.3-29.3-1.6-58.6-1.8-87.9c9.3-2.8,18.5-7.6,25.9-10.5c35.2-13.9,70.2-28,105.6-41.5c49.8-19.1,116-52.7,170.6-50.6c2.1,0.1,4.1-0.6,5.9-1.7c-0.8,26.8-3.5,53.8-1.4,79.7c5.6,71.8,6.7,144,11,215.9c-18.2-25.3-48.8-43.7-77.6-45.8c-21-1.5-40.2,7.6-55.7,21.3c-58.4,19.9-73.4,119.9-17.2,158.7c13.1,9,28,13.8,43.5,15.1c23.2,4.9,48.6,3,69-3.7c34.4-11.2,59.7-45.4,59.9-78.7c2.2-1.7,3.9-4.4,4.2-8.2C973,588.4,956.6,489.3,957.8,389.7z M554.7,747.9c-0.2,0.2-0.4,0.4-0.6,0.6c8-13.4,9.8-28.7-1.8-36.8c-0.4-1-0.8-1.9-1.3-2.8c0.2-0.1,0.4-0.1,0.6-0.2c0.4,0.3,0.8,0.6,1.2,0.9c5.7,5,8.1,11.9,8.6,19.1C560.5,736.5,557.5,744.4,554.7,747.9z"/></g></g><g></g><g></g><g></g><g></g><g></g><g></g><g></g><g></g><g></g><g></g><g></g><g></g><g></g><g></g><g></g></g>
</svg>