<?xml version="1.0" encoding="utf-8"?>
<!-- Svg Vector Icons : http://www.onlinewebfonts.com/icon -->
<!DOCTYPE svg PUBLIC "-//W3C//DTD SVG 1.1//EN" "http://www.w3.org/Graphics/SVG/1.1/DTD/svg11.dtd">
<svg version="1.1" xmlns="http://www.w3.org/2000/svg" xmlns:xlink="http://www.w3.org/1999/xlink" x="0px" y="0px" viewBox="0 0 1000 1000" enable-background="new 0 0 1000 1000" xml:space="preserve">
<metadata> Svg Vector Icons : http://www.onlinewebfonts.com/icon </metadata>
<g style="fill:#a53f3f;stroke:#a53f3f"><path d="M350.5,583.6c11.5,19.8,36.8,26.6,56.7,15.2l256.5-124.4c11.7-6.7,18.7-18.3,20.2-30.7c0.1-0.4,0.2-0.7,0.2-1.1c0.2-1.5,0.1-3,0.1-4.5c0-1.5,0-3-0.1-4.4c0-0.4-0.1-0.7-0.2-1.1c-1.6-12.4-8.6-24-20.2-30.7l-243.4-118c-7.6-9-18.8-14.8-31.5-14.8c-13.4,0-25.1,6.4-32.7,16.2c-0.6,0.6-1.1,1.3-1.7,2l0,0.1c-1.4,1.7-2.7,3.4-3.8,5.3c-6.2,10.7-6.9,23-3.2,33.8v223.2C343.6,560.6,344.3,572.9,350.5,583.6z M948.5,25.5H51.4C28.5,25.5,10,44,10,67v710.4c0,22.9,18.5,41.5,41.4,41.5h897.1c22.9,0,41.5-18.5,41.5-41.5V67C990,44,971.4,25.5,948.5,25.5z M865.6,697.1H134.4V149.9h731.3V697.1z M730,882.6H301.1c-25.4,0-46,20.6-46,45.9c0,25.4,20.6,46,46,46H730c25.4,0,45.9-20.6,45.9-46C775.9,903.2,755.3,882.6,730,882.6z"/></g>
</svg>