<?xml version="1.0" encoding="utf-8"?>
<!-- Svg Vector Icons : http://www.onlinewebfonts.com/icon -->
<!DOCTYPE svg PUBLIC "-//W3C//DTD SVG 1.1//EN" "http://www.w3.org/Graphics/SVG/1.1/DTD/svg11.dtd">
<svg version="1.1" xmlns="http://www.w3.org/2000/svg" xmlns:xlink="http://www.w3.org/1999/xlink" x="0px" y="0px" viewBox="0 0 1000 1000" enable-background="new 0 0 1000 1000" xml:space="preserve">
<metadata> Svg Vector Icons : http://www.onlinewebfonts.com/icon </metadata>
<g style="fill:#597918;stroke:#597918"><path d="M47.7,10v980h904.6V10H47.7z M500,35c27.8,0,50.4,22.6,50.4,50.4c0,27.8-22.6,50.4-50.4,50.4c-27.8,0-50.4-22.6-50.4-50.4C449.6,57.5,472.2,35,500,35z M350,35c27.8,0,50.4,22.6,50.4,50.4c0,27.8-22.6,50.4-50.4,50.4c-27.8,0-50.4-22.6-50.4-50.4C299.6,57.5,322.2,35,350,35z M198.5,35c27.8,0,50.4,22.6,50.4,50.4c0,27.8-22.6,50.4-50.4,50.4c-27.8,0-50.4-22.6-50.4-50.4C148.1,57.5,170.6,35,198.5,35z M876.9,914.6H123.1V160.8h753.8V914.6z"/><path d="M424.6,236.2h376.9v150.8H424.6V236.2z"/><path d="M424.6,537.7h376.9v75.4H424.6V537.7z"/><path d="M424.6,763.8h376.9v75.4H424.6V763.8z"/><path d="M198.5,236.2h150.8v603.1H198.5V236.2z"/></g>
</svg>